<?xml version="1.0" encoding="utf-8"?>
<svg xmlns="http://www.w3.org/2000/svg" xmlns:svg="http://www.w3.org/2000/svg" version="1.1" viewBox="0 0 1400 340">
	<title>The titlepage for the Standard Ebooks edition of The Hill of Dreams, by Arthur Machen</title>
	<g aria-label="THE HILL OF DREAMS">
		<path d="m 151.9437,68.245613 h 18.33919 V 130 h 17.59064 V 68.245613 h 18.33918 V 52.807016 H 151.9437 Z"/>
		<path d="m 235.13815,99.029239 h 24.88889 V 130 h 17.59064 V 52.807016 H 260.02704 V 83.590642 H 235.13815 V 52.807016 H 217.54751 V 130 h 17.59064 z"/>
		<path d="M 337.98318,52.807016 H 293.81944 V 130 h 44.16374 v -15.4386 h -26.5731 V 99.029239 h 25.4503 V 83.590642 h -25.4503 V 68.245613 h 26.5731 z"/>
		<path d="m 401.2712,99.029239 h 24.88889 V 130 h 17.59064 V 52.807016 H 426.16009 V 83.590642 H 401.2712 V 52.807016 H 383.68055 V 130 h 17.59065 z"/>
		<path d="M 477.54313,52.807016 H 459.95248 V 130 h 17.59065 z"/>
		<path d="M 511.41739,52.807016 H 493.82675 V 130 h 44.16374 v -15.4386 h -26.5731 z"/>
		<path d="M 569.23172,52.807016 H 551.64108 V 130 h 44.16374 v -15.4386 h -26.5731 z"/>
		<path d="m 636.57823,91.356724 c 0,22.549706 16.09357,40.046786 38.92398,40.046786 22.17544,0 38.83041,-17.49708 38.83041,-40.046786 0,-22.549708 -17.40351,-39.953217 -38.83041,-39.953217 -21.23977,0 -38.92398,17.403509 -38.92398,39.953217 z m 18.99415,0 c 0,-11.508772 6.36258,-23.017544 19.92983,-23.017544 13.66082,0 19.83626,11.508772 19.83626,23.017544 0,11.508776 -5.80117,23.017546 -19.83626,23.017546 -14.40936,0 -19.92983,-11.50877 -19.92983,-23.017546 z"/>
		<path d="M 771.72588,52.807016 H 727.0943 V 130 h 17.59064 V 99.029239 H 769.6674 V 83.590642 H 744.68494 V 68.245613 h 27.04094 z"/>
		<path d="M 815.67615,52.807016 V 130 h 22.36257 c 21.23977,0 38.92398,-16.09357 38.92398,-38.643276 0,-22.45614 -17.77778,-38.549708 -38.92398,-38.549708 z M 833.26679,114.2807 V 68.526315 h 2.71345 c 13.09941,0 21.9883,10.011696 21.9883,22.923977 -0.0936,12.912278 -8.98245,22.830408 -21.9883,22.830408 z"/>
		<path d="M 889.75512,52.807016 V 130 h 17.59065 V 99.497075 L 930.92472,130 h 22.36257 l -26.5731,-31.906433 c 9.45029,-2.994152 15.81287,-10.760234 15.81287,-22.362574 0,-15.157895 -10.85381,-22.923977 -25.1696,-22.923977 z m 17.59065,34.245615 V 66.842104 h 2.05848 c 6.64327,0 14.59649,0.467836 14.59649,10.105263 0,9.637428 -7.95322,10.105264 -14.59649,10.105264 z"/>
		<path d="M 1005.9876,52.807016 H 961.82385 V 130 h 44.16375 V 114.5614 H 979.41449 V 99.029239 h 25.45031 V 83.590642 H 979.41449 V 68.245613 h 26.57311 z"/>
		<path d="m 1060.8531,52.807016 h -16.2807 L 1013.4145,130 h 18.9005 l 5.7076,-15.4386 h 29.3802 L 1073.1104,130 h 18.9005 z m 0.5614,46.31579 h -17.4036 l 8.6082,-22.45614 h 0.1872 z"/>
		<path d="m 1163.7434,130 h 17.5906 l -6.9239,-77.192984 h -18.7135 l -17.1228,44.538013 -17.1228,-44.538013 h -18.7134 L 1095.8136,130 h 17.5906 l 3.6491,-45.754387 h 0.4679 l 15.8128,45.286547 h 10.4796 l 15.8128,-45.286547 h 0.4679 z"/>
		<path d="m 1219.9978,51.403507 c -12.4445,0 -25.1696,9.169591 -25.1696,23.578948 0,8.046784 5.4269,15.251462 14.6901,19.836258 9.1695,4.584795 17.4035,7.111107 17.4035,12.725147 0,7.20468 -7.2983,7.57895 -11.1345,7.57895 -8.6082,0 -18.9006,-8.70176 -18.9006,-8.70176 l -8.7953,14.78363 c 0,0 10.9473,10.19883 29.0058,10.19883 15.0643,0 29.0994,-6.45614 29.0994,-24.88889 0,-10.105264 -9.4503,-17.40351 -18.0585,-21.052632 -8.7953,-3.742691 -16.0935,-6.83041 -16.0935,-11.134504 0,-4.210526 3.1813,-6.923976 9.1696,-6.923976 7.9532,0 15.6257,5.333333 15.6257,5.333333 l 7.1111,-14.035088 c 0,0 -9.9181,-7.298246 -23.9532,-7.298246 z"/>
	</g>
	<g aria-label="ARTHUR MACHEN">
		<path d="M 381.79386,232.10526 H 369.58334 L 346.21492,290 h 14.17543 l 4.28071,-11.57895 h 22.03508 L 390.98684,290 h 14.17544 z m 0.42106,34.73685 H 369.16228 L 375.61842,250 h 0.14035 z"/>
		<path d="M 412.35198,232.10526 V 290 h 13.19298 V 267.12281 L 443.22917,290 h 16.77193 l -19.92982,-23.92982 c 7.08772,-2.24562 11.85965,-8.07018 11.85965,-16.77193 0,-11.36842 -8.14036,-17.19299 -18.8772,-17.19299 z m 13.19298,25.68421 v -15.15789 h 1.54386 c 4.98246,0 10.94737,0.35088 10.94737,7.57895 0,7.22807 -5.96491,7.57894 -10.94737,7.57894 z"/>
		<path d="m 461.26316,243.68421 h 13.75438 V 290 h 13.19299 v -46.31579 h 13.75438 v -11.57895 h -40.70175 z"/>
		<path d="m 524.90899,266.77193 h 18.66667 V 290 h 13.19298 v -57.89474 h -13.19298 v 23.08772 H 524.90899 V 232.10526 H 511.71601 V 290 h 13.19298 z"/>
		<path d="M 614.66118,232.10526 H 601.4682 v 33.47369 c 0,9.68421 -2.94737,12.49123 -9.40351,12.49123 -6.45614,0 -9.40351,-2.80702 -9.40351,-12.49123 V 232.10526 H 569.4682 v 37.33334 c 0,14.31579 7.85965,21.61403 22.59649,21.61403 14.73684,0 22.59649,-7.29824 22.59649,-21.61403 z"/>
		<path d="M 627.39035,232.10526 V 290 h 13.19299 V 267.12281 L 658.26755,290 h 16.77193 l -19.92983,-23.92982 c 7.08772,-2.24562 11.85965,-8.07018 11.85965,-16.77193 0,-11.36842 -8.14035,-17.19299 -18.87719,-17.19299 z m 13.19299,25.68421 v -15.15789 h 1.54386 c 4.98245,0 10.94736,0.35088 10.94736,7.57895 0,7.22807 -5.96491,7.57894 -10.94736,7.57894 z"/>
		<path d="m 754.74011,290 h 13.19299 l -5.19299,-57.89474 h -14.03508 l -12.84211,33.40351 -12.8421,-33.40351 H 708.98573 L 703.79275,290 h 13.19298 l 2.73684,-34.31579 h 0.35088 l 11.85965,33.96491 h 7.85965 l 11.85965,-33.96491 h 0.35087 z"/>
		<path d="M 807.62171,232.10526 H 795.41119 L 772.04277,290 h 14.17543 l 4.28071,-11.57895 h 22.03508 L 816.8147,290 h 14.17543 z m 0.42106,34.73685 H 794.99013 L 801.44627,250 h 0.14036 z"/>
		<path d="m 866.79384,278.07018 c -13.26316,0 -19.08772,-9.26316 -19.08772,-17.05264 0,-7.71929 5.82456,-16.98245 19.08772,-16.98245 6.73684,0 11.36842,3.57895 11.36842,3.57895 l 5.61403,-11.22807 c 0,0 -6.45614,-5.33334 -19.01754,-5.33334 -16.42105,0 -31.36842,13.47369 -31.36842,30.10527 0,16.5614 15.01754,29.89473 31.36842,29.89473 12.5614,0 19.01754,-5.33333 19.01754,-5.33333 l -5.61403,-11.22807 c 0,0 -4.63158,3.57895 -11.36842,3.57895 z"/>
		<path d="M 907.08553,266.77193 H 925.7522 V 290 h 13.19298 V 232.10526 H 925.7522 v 23.08772 H 907.08553 V 232.10526 H 893.89255 V 290 h 13.19298 z"/>
		<path d="M 985.46928,232.10526 H 952.34647 V 290 h 33.12281 v -11.57895 h -19.92983 v -11.64912 h 19.08772 v -11.57895 h -19.08772 v -11.50877 h 19.92983 z"/>
		<path d="m 1011.2467,254.07018 h 0.1404 L 1034.4046,290 h 13.193 v -57.89474 h -13.193 v 35.92983 h -0.1403 l -23.0176,-35.92983 H 998.05375 V 290 h 13.19295 z"/>
	</g>
</svg>
